<svg width="283" height="126" viewBox="0 0 283 126"
	xmlns="http://www.w3.org/2000/svg">
	<path
		d="M8.1875 125.125C5.89583 125.125 4.14583 120.917 2.9375 112.5C1.5625 103.292 0.875 94.1667 0.875 85.125C0.875 73.9167 2.125 63.5208 4.625 53.9375C4.75 53.1458 4.9375 52.75 5.1875 52.75C5.39583 52.75 5.77083 53 6.3125 53.5C7.1875 54.2917 9.10417 55.5208 12.0625 57.1875C13.3958 57.8958 14.0625 58.4375 14.0625 58.8125L14 59.0625C12.8333 62.8125 12.25 69.5625 12.25 79.3125C12.25 85.1042 12.4583 90.8125 12.875 96.4375C13.3333 102.021 13.9375 106.333 14.6875 109.375C15.3958 109.375 18.6042 103.083 24.3125 90.5C30.0208 77.9167 39 56.4375 51.25 26.0625C51.375 25.8542 51.4375 25.5625 51.4375 25.1875C50.6875 25.1875 49.625 25.375 48.25 25.75C46.9167 26.0833 44.9375 26.4583 42.3125 26.875C39.7292 27.2917 36.2917 27.5 32 27.5C23.8333 27.5 19.75 26.9583 19.75 25.875C19.75 25.4583 20.0417 24.9375 20.625 24.3125C21.2083 23.6458 22 22.8125 23 21.8125C24 20.7708 25.1667 19.5208 26.5 18.0625C27.0833 17.4792 28.2292 16.8958 29.9375 16.3125C31.6458 15.7292 33.1458 15.4375 34.4375 15.4375C35.3542 15.4375 35.9167 15.6875 36.125 16.1875C36.25 16.5208 36.7708 16.6875 37.6875 16.6875C39.5625 16.6875 44.7292 15.7917 53.1875 14C68.8958 10.5417 80.1458 8.8125 86.9375 8.8125C89.0625 8.8125 90.4167 9.08333 91 9.625C91.625 10.1667 92.1042 11.0417 92.4375 12.25C93.0625 14.1667 93.9792 16.1042 95.1875 18.0625C95.8542 18.9792 96.1875 19.6875 96.1875 20.1875C96.1875 20.6042 95.9167 21.0208 95.375 21.4375C94.8333 21.8542 93.7917 22.5208 92.25 23.4375C92.0833 23.4792 91.5417 23.5 90.625 23.5C89.1667 23.5 87.3125 23.4167 85.0625 23.25C81.6042 23.0417 79.875 22.6875 79.875 22.1875C79.875 21.9375 80.25 21.4375 81 20.6875C81.5833 20.1875 81.9167 19.7917 82 19.5C81.5417 19.5 80.6875 19.5833 79.4375 19.75C74.0625 20.625 70.8125 21.1042 69.6875 21.1875C67.8958 21.2708 66.4792 21.6667 65.4375 22.375C64.3958 23.0417 63.25 24.7708 62 27.5625C60.75 30.3542 58.8958 34.9375 56.4375 41.3125C50.8125 55.9375 44.4792 71.3333 37.4375 87.5C33.1042 97.4167 29.5417 105.104 26.75 110.562C23.5417 118.229 17.5208 123.062 8.6875 125.062L8.1875 125.125ZM55.375 100.562C55 100.562 54.6667 100.25 54.375 99.625C53.0417 95.9583 52.0208 93.5 51.3125 92.25C50.8125 91.4167 50.5625 90.7917 50.5625 90.375C50.5625 90 50.9375 89.5833 51.6875 89.125C56.0625 86.5 59.1875 85.1875 61.0625 85.1875C61.5208 85.1875 61.875 85.25 62.125 85.375L62.25 85.3125C62.25 80.9792 67.5625 68 78.1875 46.375C78.3542 46.125 78.4375 45.8125 78.4375 45.4375C77.6875 45.8125 76.9792 46.0833 76.3125 46.25C75.3542 46.0833 74.4375 46 73.5625 46C72.9792 46 72.6042 45.9792 72.4375 45.9375C72.2708 45.8958 72.1667 45.5833 72.125 45L72.1875 42.1875L72.125 39.625C72.125 37.7917 72.2292 36.4583 72.4375 35.625C72.6875 34.75 73.3958 34.0833 74.5625 33.625C75.7292 33.1667 78.3125 32.5 82.3125 31.625C86.7708 30.5417 89.5833 30 90.75 30C91.625 30 92.7083 30.3542 94 31.0625C95.0417 31.7708 97.2917 32.7708 100.75 34.0625C101.833 34.3958 102.396 34.7083 102.438 35C102.438 35.125 102.312 35.2917 102.062 35.5C99.7292 37.2917 97.9792 38.5625 96.8125 39.3125C95.8542 39.9375 95.0417 40.5417 94.375 41.125C93.7083 41.7083 93.0208 42.5625 92.3125 43.6875C91.3125 45.3125 87.5833 53.3958 81.125 67.9375C76.4167 78.1458 74.0625 83.5833 74.0625 84.25C74.0625 84.7083 74.6458 84.9583 75.8125 85C77.0208 85.0417 78.7917 85.4583 81.125 86.25C81.75 86.4583 82.0625 86.7292 82.0625 87.0625C82.0625 87.6458 80.2083 89.6875 76.5 93.1875C74.9583 94.7708 74.0833 95.5625 73.875 95.5625C73.7917 95.5625 73.6875 95.4375 73.5625 95.1875C73.3125 94.7708 72.9375 94.5625 72.4375 94.5625C71.7708 94.5625 71.375 94.7708 71.25 95.1875C71 95.9792 70.7083 96.375 70.375 96.375C70.2083 96.375 69.9792 96.1875 69.6875 95.8125C69.2292 95.3125 68.7917 95.0625 68.375 95.0625C62.5833 96.0625 59.0208 97.3333 57.6875 98.875C56.6458 99.9583 55.875 100.521 55.375 100.562ZM84.75 103.438C84.4167 103.438 84.1875 103.146 84.0625 102.562C83.8958 101.979 83.625 100.646 83.25 98.5625C83 97.1042 82.875 96.0625 82.875 95.4375C82.875 92.2292 84.6458 86.3958 88.1875 77.9375C91.6875 69.4375 94.8542 62.1667 97.6875 56.125C100.562 50.0833 103.25 44.9375 105.75 40.6875C108.25 36.3958 109.875 34.25 110.625 34.25C113 35.0417 115.125 35.4375 117 35.4375C117.5 35.4375 117.917 35.375 118.25 35.25C118.375 35.625 118.729 35.8125 119.312 35.8125C119.938 35.8125 120.25 36.125 120.25 36.75C120.25 37.375 120.542 37.75 121.125 37.875C121.5 38 121.688 38.7083 121.688 40C121.688 40.75 121.562 42.1875 121.312 44.3125C121.104 46.4375 120.896 48.4167 120.688 50.25C120.479 52.0417 119.854 55 118.812 59.125C117.771 63.25 117.146 66.6875 116.938 69.4375C118.438 66.8542 122.042 60 127.75 48.875C134.792 35.0417 138.479 27 138.812 24.75C138.854 24.4167 139 24.1042 139.25 23.8125C139.542 23.5208 139.854 23.375 140.188 23.375C140.354 23.375 140.521 23.4375 140.688 23.5625C144.854 27.2292 147.292 29.4167 148 30.125C148.833 31 149.25 31.7708 149.25 32.4375C149.25 33.0625 148.979 33.7917 148.438 34.625C148.438 34.8333 141.458 48.6458 127.5 76.0625C121.958 86.9792 118.729 92.6667 117.812 93.125C117.521 93.2917 116.458 93.5208 114.625 93.8125C110.833 94.6458 108.208 95.0625 106.75 95.0625C105.417 95.0625 104.417 94.6667 103.75 93.875C103.083 93.0833 102.75 91.5833 102.75 89.375C102.75 85.25 104.292 75.8125 107.375 61.0625H107.188C99.9792 75.6458 96.375 83.125 96.375 83.5C96.375 83.625 96.5625 83.7292 96.9375 83.8125C97.3542 83.8542 97.5625 84 97.5625 84.25C97.5625 84.4167 97.4792 84.6667 97.3125 85C96.1875 87.2083 95.3125 89.0833 94.6875 90.625C93.8958 92.5417 93.1458 93.9583 92.4375 94.875C91.3958 96.125 90.5 97.2292 89.75 98.1875C86.9167 101.688 85.25 103.438 84.75 103.438ZM171.5 107.125C171.25 107.125 170.938 106.854 170.562 106.312C164.979 98.8125 161.104 92 158.938 85.875C156.396 78.875 154.917 75.375 154.5 75.375C154 75.375 152.854 76.6458 151.062 79.1875C149.438 81.6042 146.688 85.2083 142.812 90C142.812 90.0417 142.792 90.0625 142.75 90.0625C142.458 90.4375 142.208 90.625 142 90.625C141.667 90.625 140.396 89.5208 138.188 87.3125C134.938 84.2292 133.312 82 133.312 80.625C133.312 80 133.542 79.5417 134 79.25C134.417 78.9167 134.875 78.6458 135.375 78.4375C135.875 78.2292 136.229 78.0208 136.438 77.8125C140.271 72.9375 143.25 69.2708 145.375 66.8125C147.208 64.6875 148.521 63.0417 149.312 61.875C150.146 60.7083 150.562 59.5417 150.562 58.375C150.562 56.9583 150.104 55.0417 149.188 52.625C148.729 51.2917 148.208 49.625 147.625 47.625C147.5 47.1667 147.125 46.5 146.5 45.625L142.812 40.625C141.229 38.375 140.438 36.7292 140.438 35.6875C140.438 34.8125 140.812 34.25 141.562 34C142.312 33.7083 143.167 33.5 144.125 33.375C145.667 33.0833 146.958 32.7083 148 32.25C149.083 31.7917 150 31.5625 150.75 31.5625C151.625 31.5625 152.438 32.0417 153.188 33C153.938 33.9583 154.792 35.7708 155.75 38.4375C156.75 41.1042 158 44.8958 159.5 49.8125L159.625 49.9375C160 49.6458 160.917 48.6667 162.375 47C169.292 39.3333 173.917 34.375 176.25 32.125C178.583 29.8333 180.688 28.3125 182.562 27.5625C184.479 26.7708 186.854 26.375 189.688 26.375C191.938 26.4167 193.062 26.5 193.062 26.625C193.062 26.7917 192.958 27.125 192.75 27.625C191.375 31.2917 190.688 33.75 190.688 35C190.646 35.375 190.562 35.7083 190.438 36C190.354 36.2917 189.625 37.0833 188.25 38.375C183.542 42.7917 175.354 51.4583 163.688 64.375L163.625 64.6875C163.625 65.3542 163.875 66.6667 164.375 68.625C168.792 83.1667 171.625 90.4375 172.875 90.4375C173.167 90.3542 173.417 90.3125 173.625 90.3125C174.708 90.3125 175.25 91.3958 175.25 93.5625C175.25 95.4375 174.938 97.6042 174.312 100.062C173.062 104.771 172.125 107.125 171.5 107.125ZM212.938 124.25C212.229 124.25 211.667 123.771 211.25 122.812C209.667 119.396 207.271 105.979 204.062 82.5625C203.354 77.3958 202.917 74.6458 202.75 74.3125C202 74.5208 195.292 81.9792 182.625 96.6875C176.292 104.062 172.896 107.979 172.438 108.438C171.938 108.938 171.229 109.188 170.312 109.188C169.938 109.146 169.583 109.062 169.25 108.938C166.5 107.938 163.958 107.292 161.625 107C160.292 106.75 159.396 106.521 158.938 106.312V106C160.146 104.917 167.396 97.0417 180.688 82.375C194.146 67.375 200.875 59.6667 200.875 59.25C198.75 42.75 196.729 31.2292 194.812 24.6875C194.229 22.8125 193.938 21.4375 193.938 20.5625C193.938 19.6458 194.417 17.6458 195.375 14.5625C196.542 9.4375 197.646 6.875 198.688 6.875C199.229 6.875 200.125 7.91667 201.375 10C201.875 10.875 202.479 11.8333 203.188 12.875C207.188 19.3333 209.792 29.2708 211 42.6875C211.292 45.8542 211.583 47.625 211.875 48C212.292 47.75 214.875 45.1667 219.625 40.25C238.167 20.8333 251.938 7.58333 260.938 0.5H261.25C261.542 2.04167 261.833 3.41667 262.125 4.625C262.708 7.25 263 9.3125 263 10.8125C263 12.2708 262.521 13.5625 261.562 14.6875C260.646 15.7708 259.042 17.2917 256.75 19.25C254.458 21.2083 251.292 24.1042 247.25 27.9375C242.333 32.6875 238 36.7917 234.25 40.25C226.75 47.0417 221.458 52.375 218.375 56.25C215.333 60.0833 213.812 64.6458 213.812 69.9375C213.812 72.6875 214.146 75.9375 214.812 79.6875C215.479 83.4375 216.333 87.9583 217.375 93.25C218.417 98.25 219.583 104.208 220.875 111.125C221.125 112.083 221.542 112.917 222.125 113.625C222.708 114.333 223.229 115.188 223.688 116.188C224.146 117.188 224.375 118.75 224.375 120.875C224.375 121.5 224.167 121.854 223.75 121.938C223.375 122.062 222.25 122.229 220.375 122.438C218.125 122.771 216.396 123.188 215.188 123.688C214.271 124.062 213.521 124.25 212.938 124.25ZM238 101.625C237.417 101.625 235 101.104 230.75 100.062C229.042 99.7708 227.875 99.5 227.25 99.25C226.625 98.9583 226.312 98.4375 226.312 97.6875C226.312 96.2292 227.771 93.2292 230.688 88.6875C232.729 85.5208 238.542 76.8542 248.125 62.6875C248 61.8125 246.271 57.625 242.938 50.125C239.604 42.5833 237.104 37.6875 235.438 35.4375L235.375 35.3125C235.375 34.6042 237.438 32.7292 241.562 29.6875C243.396 28.3542 244.458 27.6875 244.75 27.6875C245.458 27.6875 246.312 28.5 247.312 30.125C248.562 32.2917 250.5 36.6458 253.125 43.1875C254.833 47.4792 255.917 49.8542 256.375 50.3125L258.5 47.375C263.792 39.7083 268.396 34.3125 272.312 31.1875L275.312 28.9375C277.438 27.1458 278.771 26.25 279.312 26.25C279.646 26.25 279.854 26.7708 279.938 27.8125C280.104 29.1042 280.667 31.2917 281.625 34.375C281.958 35.2917 282.125 35.9375 282.125 36.3125C282.125 36.6458 282.021 37 281.812 37.375C281.479 38 281.188 38.625 280.938 39.25C280.979 39.125 281.021 38.9792 281.062 38.8125C281.146 38.6458 281.208 38.4792 281.25 38.3125C281.333 38.1042 281.375 37.9167 281.375 37.75C281.375 37.5833 281.312 37.5 281.188 37.5C280.479 37.5 277.688 40.9167 272.812 47.75C266.062 57.125 255.542 72.9167 241.25 95.125C241.125 95.3333 241.062 95.5417 241.062 95.75C241.062 96.0833 241.167 96.4167 241.375 96.75C241.583 97.0417 241.688 97.4167 241.688 97.875C241.688 98.75 240.875 99.8542 239.25 101.188C238.958 101.479 238.542 101.625 238 101.625Z"
		fill="white" />
</svg>