<svg xmlns="http://www.w3.org/2000/svg" fill="none" viewBox="0 0 1412 469">
	<g clip-path="url(#a)">
		<path fill="#B9B1DD" fill-rule="evenodd"
			d="M436.583 66.2255c.695 16.9867-.017 33.5916-2.129 49.8145.354-11.781-.002-23.5436-1.065-35.2853-.157 3.8988-1.443 7.4004-4.258 10.378-.709-.6911-1.421-1.3844-2.13-2.0756-4.505 2.47-8.764 5.2368-12.776 8.3024-2.787-4.9627-4.916-4.9627-6.387 0-2.811-.6206-6.005-.9672-9.582-1.0378-1.774-3.1134-4.259-5.5356-7.453-7.2646-6.463 1.4197-11.432 4.8798-14.905 10.3781-2.545-3.3188-2.745-6.4166 1.064-9.3403-2.747.4965-3.464-1.748-3.194-5.189-.53 2.333-1.594 4.4086-3.194 6.2268-2.546-.7181-2.546-1.7559 0-3.1134-4.465 1.2114-8.343 1.34-11.711 1.0378 2.615-6.6606.841-11.8496-5.323-15.567l2.129-2.0756c-1.688-2.252-3.109-4.6742-4.258-7.2646 2.369-6.2102 5.208-12.0904 8.517-17.6426-2.129-.6912-4.259-1.3844-6.388-2.0756l2.129-2.0756c-8.032-2.883-8.032-4.9586 0-6.2268-5.3-1.9532-9.558-.9154-12.776 3.1134h-8.517c17.171-8.6968 35.626-14.2303 55.362-16.6048 15.955-2.5426 24.473 3.6842 25.552 18.6804 4.955-.5251 9.214.8593 12.776 4.1512 3.503 6.8204 6.341 13.7384 8.517 20.756Z"
			clip-rule="evenodd" />
		<path fill="#BAB3DB" fill-rule="evenodd"
			d="M253.461 28.8649c-4.001-.2221-4.71.8157-2.129 3.1134-8.875 11.1107-12.778 23.2177-11.711 36.323-3.326 4.0142-7.229 7.4743-11.712 10.378-1.247-.4338-2.312-1.127-3.194-2.0756-1.988 7.192-5.182 7.8832-9.582 2.0756-4.273 1.3928-8.176 3.4684-11.711 6.2268-2.012-.8406-3.432-2.225-4.259-4.1512l-2.129 2.0756c-3.124-5.3529-5.608-10.8886-7.452-16.6048h-12.776c-1.857 10.3843-5.76 11.7666-11.712 4.1512-.881.9486-1.946 1.6418-3.194 2.0756-5.951-3.4974-12.339-5.9175-19.164-7.2646-2.708-2.7128-4.837-5.8262-6.387-9.3402-3.058 4.8196-6.963 6.204-11.712 4.1512-.332 5.5855-2.106 10.4278-5.323 14.5292 1.071-11.4365 3.2-22.5078 6.388-33.2096 5.817-11.092 11.852-22.1633 18.099-33.2096 4.382-1.5132 8.285-3.5888 11.711-6.2269 37.3-6.1686 69.949 2.827 97.949 26.9829Z"
			clip-rule="evenodd" />
		<path fill="#B3ABDE" fill-rule="evenodd"
			d="M434.453 116.04c-.471 5.328-1.891 10.173-4.259 14.529.341-3.526-.013-6.986-1.064-10.378-4.336-1.249-8.241-3.325-11.712-6.226-2.169 2.463-4.654 4.539-7.452 6.226-12.272-2.241-23.983-2.241-35.134 0-9.084.559-11.113-2.407-7.453-8.302-.709.691-1.42 1.384-2.129 2.076-5.01-3.984-6.984-8.868-6.388-14.5297-2.271 4.7357-5.542 8.0017-10.647 8.3027-4.988-5.301-7.741-9.0934-13.84-6.227 1.007-8.3087-.413-16.6111-4.259-24.9073 4.267-11.4262 9.946-22.1509 17.035-32.1719-1.205-2.0652-2.626-3.7942-4.259-5.189 3.218-4.0287 7.476-5.0665 12.776-3.1134-8.032 1.2682-8.032 3.3438 0 6.2268l-2.129 2.0756c2.129.6912 4.258 1.3845 6.388 2.0756-3.309 5.5523-6.148 11.4325-8.518 17.6427 1.15 2.5903 2.571 5.0125 4.259 7.2646l-2.129 2.0756c6.164 3.7174 7.938 8.9064 5.323 15.567 3.675-2.2334 7.578-2.58 11.711-1.0378-2.546 1.3574-2.546 2.3952 0 3.1134 1.599-1.8182 2.664-3.8938 3.194-6.2268.797 1.9012 1.861 3.6323 3.194 5.189-2.244 2.8809-2.598 5.9943-1.064 9.3402 3.473-5.4983 8.442-8.9583 14.905-10.378 3.194 1.729 5.679 4.1512 7.452 7.2646 3.578.0706 6.772.4172 9.582 1.0378 1.472-4.9628 3.601-4.9628 6.388 0 4.012-3.0657 8.271-5.8324 12.776-8.3024.709.6912 1.421 1.3844 2.13 2.0756 1.835-3.294 3.255-6.754 4.258-10.378a293.5087 293.5087 0 0 1 1.065 35.2851Z"
			clip-rule="evenodd" />
		<path fill="#B3AAD9" fill-rule="evenodd"
			d="M253.46 28.8648c15.365 13.5495 28.141 28.772 38.328 45.6633-1.42 2.0756-2.839 4.1512-4.259 6.2268-6.784 11.8683-14.59 22.9391-23.422 33.2091-.473-5.346-3.311-7.077-8.518-5.189-7.908 4.108-10.037 9.988-6.388 17.643-4.435 5.359-9.405 5.359-14.905 0-1.503 4.575-3.632 8.726-6.388 12.454-3.49-7.553-9.167-13.087-17.034-16.605-4.329 2.269-89.355-34.2281-89.432 6.227-1.635-1.584-2.7-3.66-3.194-6.227-1.633-16.013-1.277-31.927 1.065-47.7389 3.217-4.1014 4.991-8.9438 5.323-14.5293 4.749 2.0528 8.654.6684 11.711-4.1512 1.551 3.514 3.68 6.6274 6.388 9.3402 6.825 1.3471 13.213 3.7673 19.164 7.2647 1.248-.4338 2.313-1.1271 3.194-2.0756 5.952 7.6153 9.855 6.233 11.712-4.1512h12.775c1.844 5.7162 4.329 11.2518 7.453 16.6048l2.129-2.0756c.827 1.9261 2.247 3.3105 4.259 4.1512 3.535-2.7585 7.438-4.8341 11.711-6.2268 4.399 5.8075 7.593 5.1163 9.582-2.0756.882.9485 1.946 1.6418 3.194 2.0756 4.482-2.9038 8.385-6.3638 11.711-10.378-1.066-13.1054 2.837-25.2124 11.712-36.3231-2.581-2.2977-1.872-3.3355 2.129-3.1134Z"
			clip-rule="evenodd" />
		<path fill="#7869AD" fill-rule="evenodd"
			d="M287.53 80.7554c2.121-.1785 3.895.5148 5.324 2.0756 2.388 9.2127 2.437 18.256-1.065 26.983-6.769 8.306-10.317 17.993-10.647 29.058-2.838 5.536-5.679 11.069-8.517 16.605-3.633-4.384-6.471-9.226-8.517-14.529h-2.13c.514-4.977-.907-9.129-4.258-12.454.481-5.124 2.509-9.966 6.388-14.529 8.832-10.27 16.638-21.3413 23.422-33.2096Z"
			clip-rule="evenodd" />
		<path fill="#17151F" fill-rule="evenodd"
			d="M264.108 113.964c-2.711 4.594-4.84 9.436-6.388 14.53 26.763 26.275-21.341 28.904-6.388 0 0-1.385-.709-2.076-2.13-2.076-3.649-7.655-1.52-13.535 6.388-17.643 5.206-1.888 8.045-.157 8.518 5.189Z"
			clip-rule="evenodd" />
		<path fill="#17171D" fill-rule="evenodd"
			d="M321.6 118.116c0 1.384-.71 2.075-2.13 2.075-3.491.059-6.21 1.423-8.517 4.152 2.962 4.4 4.382 9.242 4.259 14.529-1.195 9.056-2.613 18.049-4.259 26.983-3.628 5.72-6.467 11.947-8.517 18.68-7.638 12.811-14.735 25.958-21.294 39.437-4.918 5.4-8.821 11.627-11.711 18.68-1.145-8.184-.081-16.14 3.194-23.869 4.923-5.009 8.473-10.889 10.647-17.643 8.014-17.709 15.467-35.698 22.358-53.966 1.72-7.32 1.364-14.238-1.065-20.756-2.789-3.42-5.628-6.878-8.517-10.378 9.358-11.048 17.875-10.355 25.552 2.076Z"
			clip-rule="evenodd" />
		<path fill="#ACA3DE" fill-rule="evenodd"
			d="M334.375 39.2427h8.517c1.633 1.3948 3.054 3.1238 4.259 5.189-7.089 10.021-12.768 20.7456-17.035 32.1718 3.846 8.2962 5.266 16.5986 4.259 24.9075 7.721-4.3652 12.333-2.2896 13.84 6.227 4.163-1.978 7.713-4.747 10.647-8.3029 1.544 5.0829 3.673 9.9279 6.388 14.5289l2.129-2.075c1.357 3.742 3.839 6.509 7.453 8.302 11.151-2.241 22.862-2.241 35.134 0 2.798-1.687 5.283-3.763 7.452-6.227 3.471 2.902 7.376 4.978 11.712 6.227 1.051 3.392 1.405 6.852 1.064 10.378-1.488 9.905-5.038 18.899-10.646 26.983-4.598-1.347-9.058-3.713-12.776-7.265-3.107-.267-6.324-.047-9.582 1.038l-4.259-4.151c-8.726-2.318-17.599-2.318-26.616 0-2.083-.99-3.857-2.372-5.324-4.151h-10.646c-2.13-5.536-4.259-5.536-6.388 0-1.065-1.038-2.13-2.076-3.194-3.114 3.671-6.844 5.958-14.099 7.452-21.793-3.762 2.733-6.603 6.193-8.517 10.378-.709-.692-1.42-1.385-2.129-2.076-2.13 2.076-4.259 4.151-6.388 6.227-2.129-5.536-4.259-5.536-6.388 0-2.748-3.755-4.593-7.878-5.323-12.454 1.42 0 2.129-.691 2.129-2.075 2.774-4.685 1.354-8.49-4.259-11.416-9.16-2.088-17.677-1.051-25.552 3.113 2.215-8.883 2.568-17.877 1.065-26.9827-1.429-1.5608-3.202-2.2541-5.323-2.0756 1.42-2.0756 2.838-4.1512 4.258-6.2268 8.867-10.3718 18.804-19.712 29.811-28.0206 4.056-2.9494 8.315-5.3717 12.776-7.2646Z"
			clip-rule="evenodd" />
		<path fill="#9997C7" fill-rule="evenodd"
			d="M321.6 118.116c-7.677-12.431-16.194-13.124-25.552-2.075 2.889 3.499 5.728 6.957 8.517 10.378 1.429 10.774-2.121 19.423-10.647 25.945-7.301-1.252-11.56-5.75-12.775-13.492.33-11.065 3.877-20.752 10.646-29.058 7.874-4.164 16.392-5.202 25.552-3.114 5.613 2.927 7.033 6.732 4.259 11.416Z"
			clip-rule="evenodd" />
		<path fill="#9B8FCE" fill-rule="evenodd"
			d="M217.263 149.25c4.835 8.736 9.094 17.73 12.776 26.983-5.081-.961-9.695-3.73-13.841-8.303-1.314 1.97-.96 3.699 1.065 5.189-2.019 1.003-4.148 1.347-6.388 1.038-1.536-3.906-3.665-4.597-6.388-2.075-3.145-4.789-7.404-8.593-12.776-11.416-14.991-9.039-30.605-16.304-46.845-21.794 8.213-.38 16.376-1.073 24.487-2.076 1.42 1.385 2.838 2.767 4.259 4.152 2.7-.241 5.54-.932 8.517-2.076 11.725 3.525 23.236 7.57 35.134 10.378Z"
			clip-rule="evenodd" />
		<path fill="#A39BD7" fill-rule="evenodd"
			d="M419.549 157.552c-1.961 7.885-5.511 14.803-10.647 20.756-20.288-.853-40.161 1.223-59.621 6.227-.143 1.209-21.124 4.628-24.487-2.076-.471-7.146-2.6-7.837-6.388-2.075l12.776-29.059c-4.614 7.265-9.226 14.53-13.841 21.794-5.182.691-7.312-1.731-6.388-7.264 1.646-8.934 3.065-17.927 4.259-26.983.124-5.287-1.297-10.129-4.259-14.529 1.746-3.344 4.587-4.729 8.518-4.152 1.132 4.421 2.906 8.573 5.323 12.454 2.129-5.536 4.259-5.536 6.388 0 2.129-2.076 4.259-4.151 6.388-6.227.709.691 1.42 1.385 2.129 2.076 1.915-4.185 4.755-7.645 8.518-10.378-.727 7.657-3.209 14.921-7.453 21.794 1.065 1.037 2.129 2.075 3.194 3.113 2.129-5.536 4.259-5.536 6.388 0h10.646c1.468 1.779 3.241 3.161 5.324 4.151 9.017-2.318 17.89-2.318 26.616 0l4.259 4.151c2.955-2.187 6.149-2.532 9.582-1.037 5.364 1.216 9.622 3.638 12.776 7.264Z"
			clip-rule="evenodd" />
		<path fill="#7E73B6" fill-rule="evenodd"
			d="M144.866 138.872c16.24 5.49 31.855 12.754 46.845 21.793 5.372 2.823 9.631 6.628 12.776 11.416 13.319 16.18 20.416 34.167 21.293 53.966-9.358-12.252-20.005-23.668-31.94-34.248-9.961-4.62-20.252-8.424-30.875-11.415-.713 3.219-2.058 4.146-3.194 4.151-7.799-.429-13.612-4.255-18.099-10.378-7.985-10.374-14.017-21.79-18.099-34.248.709-1.037 1.42-2.075 2.129-3.113 6.053-3.227 12.448-2.753 19.164 2.076Z"
			clip-rule="evenodd" />
		<path fill="#B3ACDC" fill-rule="evenodd"
			d="M95.8913 138.872c-.2363 1.281-.9454 2.319-2.1293 3.113-4.9677.692-9.9375 1.385-14.9052 2.076 2.6808 1.916 5.5192 3.647 8.5172 5.189 2.832 6.951 1.7674 7.642-3.1939 2.076-3.4389 2.399-3.4389 5.166 0 8.302.709-.691 1.4202-1.384 2.1293-2.076 2.5679 7.379 2.2124 14.99-1.0647 22.832 2.5935 2.705 1.8845 4.78-2.1293 6.227 1.5523 4.348.1342 8.153-4.2586 11.416 2.7489 4.338 1.3287 7.107-4.2587 8.302 4.0117.448 7.5612 1.833 10.6466 4.151-1.4202 1.385-2.8384 2.767-4.2586 4.152 6.1133.271 11.0831 2.692 14.9052 7.264 1.2755 6.939 4.1137 13.166 8.5177 18.681-1.15 2.59-2.57 5.012-4.259 7.264 1.976.806 3.396 2.19 4.259 4.151-1.968 2.387-1.968 4.463 0 6.227-1.548 2.904-2.613 6.017-3.194 9.34-3.7416 1.285-6.2265 3.707-7.453 7.265 2.9661 2.7 4.0308 5.814 3.194 9.34-3.9542-1.384-7.1481 0-9.582 4.151-5.1806.472-8.728-1.604-10.6465-6.226-.164-2.595-1.5843-4.324-4.2587-5.189 4.3353-5.189 5.0465-10.725 2.1293-16.605 1.7035-8.469 2.7681-17.118 3.194-25.945l3.194-3.114c-3.2281-3.937-4.6483-8.435-4.2586-13.491-18.5358-.656-36.635-3.423-54.2977-8.302-1.4671 1.778-3.2408 3.161-5.3233 4.151-2.5786-1.848-5.4191-1.848-8.5173 0-1.4203-.691-2.8384-1.385-4.2586-2.076 3.7859-3.661 6.6243-7.812 8.5172-12.453 4.4226-6.539 8.3257-13.459 11.7113-20.756 5.7598-5.264 11.0831-10.8 15.9699-16.605 15.8443-13.226 34.297-20.835 55.3623-22.832Z"
			clip-rule="evenodd" />
		<path fill="#8D87B4" fill-rule="evenodd"
			d="M304.563 126.418c2.429 6.518 2.785 13.436 1.065 20.756-6.891 18.268-14.344 36.257-22.358 53.966-2.121-.178-3.895.515-5.324 2.076-.355-1.385-.709-2.767-1.064-4.151 3.181-10.329 6.019-20.707 8.517-31.135h-6.388c-2.189-5.392-4.318-5.392-6.388 0v-12.453c2.838-5.536 5.679-11.069 8.517-16.605 1.216 7.742 5.475 12.24 12.776 13.491 8.526-6.521 12.076-15.17 10.647-25.945Z"
			clip-rule="evenodd" />
		<path fill="#ADA5D9" fill-rule="evenodd"
			d="M121.443 136.797c-.724 4.522-2.854 8.327-6.388 11.415-4.853.982-9.112 3.058-12.776 6.227 3.975 1.476 7.169.438 9.582-3.113 1.352 3.043 3.128 5.811 5.323 8.302 1.295 4.533-.126 8.684-4.259 12.454 5.266 4.678 5.266 9.174 0 13.491 5.121 9.716 5.477 19.75 1.065 30.096-1.97 1.136-3.743 2.518-5.323 4.152 5.423 2.976 10.393 6.434 14.905 10.378-1.339 5.614-2.051 11.15-2.129 16.604 4.448 4.349 4.448 8.153 0 11.416 2.838 2.767 2.838 5.536 0 8.303 4.846 3.889 4.137 7.349-2.13 10.378 2.499 2.105 3.294 4.53 2.13 7.264-3.414-.39-6.254.648-8.518 3.114 3.835.658 4.544 2.042 2.13 4.151 5.659 3.068 11.338 5.49 17.034 7.264-16.144.061-31.049-3.397-44.7154-10.378 2.4338-4.151 5.6278-5.535 9.5819-4.151.8368-3.526-.2278-6.64-3.194-9.34 1.2265-3.558 3.7114-5.98 7.4525-7.265.581-3.323 1.646-6.436 3.194-9.34-1.967-1.764-1.967-3.84 0-6.227-.862-1.961-2.282-3.345-4.258-4.151 1.688-2.252 3.108-4.674 4.258-7.264-4.403-5.515-7.2417-11.742-8.5171-18.681-3.8222-4.572-8.792-6.993-14.9053-7.264 1.4203-1.385 2.8384-2.767 4.2587-4.152-3.0854-2.318-6.635-3.702-10.6466-4.151 5.5873-1.195 7.0075-3.964 4.2586-8.302 4.3928-3.263 5.8109-7.068 4.2586-11.416 4.0138-1.447 4.7229-3.522 2.1294-6.227 3.277-7.841 3.6326-15.453 1.0646-22.831l-2.1293 2.075c-3.4389-3.136-3.4389-5.903 0-8.302 4.9613 5.566 6.026 4.875 3.194-2.076-2.9981-1.542-5.8365-3.273-8.5173-5.189 4.9677-.691 9.9375-1.384 14.9052-2.075 1.1839-.795 1.893-1.833 2.1294-3.114 8.0871-2.04 16.6041-2.733 25.5521-2.075Z"
			clip-rule="evenodd" />
		<path fill="#161620" fill-rule="evenodd"
			d="M210.874 122.267c7.868 3.518 13.545 9.052 17.035 16.605 8.696 14.88 14.375 30.794 17.034 47.739-2.698-1.219-4.827-1.219-6.388 0 1.723 3.261 2.434 6.721 2.13 10.378h-2.13c-2.346-7.166-5.125-14.094-8.517-20.756-3.682-9.253-7.94-18.247-12.776-26.983-3.445-8.695-5.575-17.688-6.388-26.983Z"
			clip-rule="evenodd" />
		<path fill="#A79DD6" fill-rule="evenodd"
			d="M210.874 122.267c.813 9.295 2.942 18.288 6.388 26.983-12.316-1.582-24.028-5.04-35.134-10.378-2.977 1.144-5.817 1.835-8.517 2.076-1.421-1.385-2.839-2.767-4.259-4.152a319.9631 319.9631 0 0 1-24.487 2.076c-6.556.498-12.944-.193-19.164-2.076-.709 1.038-1.42 2.076-2.129 3.114 4.081 12.458 10.114 23.873 18.099 34.247 5.283 4.824 11.315 8.284 18.099 10.378 4.022 2.292 7.57 5.058 10.647 8.303-2.698 5.315-2.698 10.851 0 16.604-8.682-1.002-13.649 2.458-14.906 10.378-3.845 1.088-7.393 2.473-10.646 4.152-.183 2.067.528 3.796 2.129 5.189 12.589 3.003 22.526 9.577 29.811 19.718-5.658.903-10.628 2.978-14.906 6.227-3.568 1.417-4.989 4.186-4.258 8.302 8.149-.124 9.569 2.298 4.258 7.265 9.238-1.923 14.197.821 14.906 8.302-18.679 13.245-16.55 19.816 6.387 19.718-5.02 6.69-8.214 14.301-9.581 22.832-2.62 14.415-3.684 28.944-3.194 43.588v4.151c-3.184.176-5.313-1.206-6.388-4.151 1.62-20.454 1.953-40.76 2.129-50.853-2.659-.939-4.742-.545-6.388 1.038.72 4.473.72 9.318 0 14.529-2.924.326-5.764-.02-8.517-1.037 4.252-2.394 4.961-5.507 2.129-9.341-1.97 2.369-3.745 2.369-5.323 0-1.66 5.057-4.082 6.399-7.453 2.076 6.271-8.201 4.851-9.932-4.259-5.189 5.479 3.44 5.266 5.199-1.064 5.189-2.149-3.165-3.213-6.625-3.194-10.378 2.372-2.875 4.501-5.988 6.388-9.34-2.187-1.065-4.316-2.103-6.388-3.114-5.696-1.774-11.375-4.196-17.035-7.264 2.415-2.109 1.706-3.493-2.129-4.151 2.263-2.466 5.104-3.504 8.517-3.114.362-2.744-.347-5.166-2.129-7.264 6.266-3.029 6.976-6.489 2.129-10.378 2.839-2.767 2.839-5.536 0-8.303 4.448-3.263 4.448-7.067 0-11.416.079-5.454.79-10.99 2.13-16.604-4.513-3.944-9.482-7.402-14.906-10.379 1.58-1.633 3.354-3.015 5.324-4.151 4.412-10.347 4.056-20.38-1.065-30.096 5.266-4.317 5.266-8.813 0-13.491 4.133-3.77 5.553-7.921 4.259-12.454-2.196-2.491-3.972-5.26-5.324-8.302-2.412 3.551-5.606 4.589-9.582 3.113 3.665-3.169 7.924-5.245 12.776-6.227 3.535-3.088 5.664-6.893 6.388-11.416v-8.302c.021-11.239 1.442-22.309 4.259-33.2097 1.763 1.8992 3.892 3.2816 6.388 4.1512 3.63-2.169 6.824-4.9357 9.582-8.3024-.62 8.8234 2.93 10.2079 10.646 4.1512 1.421 5.5357 2.839 5.5357 4.259 0 3.907 1.2848 8.519 1.6315 13.841 1.0378-4.461-1.154-4.817-2.1918-1.065-3.1134 5.934 2.1109 11.967 2.4576 18.099 1.0378 1.471-2.2146 2.536-4.6369 3.194-7.2646 10.357 10.569 17.101 22.3291 20.229 35.2851Z"
			clip-rule="evenodd" />
		<path fill="#8879B9" fill-rule="evenodd"
			d="M230.038 176.233c4.885 5.957 7.725 12.875 8.517 20.756-1.239 2.97-3.013 5.737-5.323 8.303-.328-6.279-3.522-9.737-9.582-10.379-4.227-6.845-8.485-13.763-12.776-20.756 2.24.31 4.369-.035 6.388-1.037-2.025-1.491-2.378-3.22-1.065-5.189 4.146 4.572 8.76 7.341 13.841 8.302Z"
			clip-rule="evenodd" />
		<path fill="#A797C2" fill-rule="evenodd"
			d="M249.202 126.418c1.421 0 2.13.692 2.13 2.076.083 5.374-2.047 9.525-6.388 12.454-.064 1.695-.876 2.24-2.13 2.075-1.952 4.488-1.952 9.33 0 14.529h8.518v35.286c-1.314.23-2.379.921-3.194 2.075-.494-2.567-1.559-4.643-3.194-6.226v-2.076c-2.66-16.945-8.339-32.859-17.035-47.739 2.756-3.728 4.885-7.879 6.388-12.454 5.5 5.36 10.47 5.36 14.905 0Z"
			clip-rule="evenodd" />
		<path fill="#716DA0" fill-rule="evenodd"
			d="M279.012 167.93c-1.846 12.036-4.684 23.799-8.517 35.285-2.745 3.628-5.939 4.32-9.582 2.076-1.062-8.273-1.418-16.576-1.065-24.907 4.968-3.46 9.227-7.612 12.776-12.454 2.07-5.392 4.199-5.392 6.388 0Z"
			clip-rule="evenodd" />
		<path fill="#9B8DCB" fill-rule="evenodd"
			d="M349.28 184.535v2.075c-6.566 11.101-14.88 18.375-25.552 20.756.345-4.207-.011-8.358-1.065-12.453-5.743 4.566-11.066 9.409-15.97 14.529.183-2.067-.528-3.796-2.129-5.189 5.423-2.731 6.841-6.536 4.259-11.416 2.655-4.145 4.431-8.296 5.323-12.453-3.075 3.435-6.98 4.819-11.711 4.151 2.05-6.733 4.888-12.96 8.517-18.681-.924 5.534 1.205 7.956 6.388 7.265 4.614-7.265 9.226-14.529 13.84-21.794-4.258 9.687-8.517 19.372-12.776 29.059 3.789-5.762 5.918-5.071 6.388 2.075 7.54-.506 14.993-1.197 22.358-2.075 1.699.948 2.409 2.333 2.13 4.151Z"
			clip-rule="evenodd" />
		<path fill="#847BB8" fill-rule="evenodd"
			d="M408.901 178.308c-3.899 7.585-8.867 14.503-14.906 20.756-16.653 8.461-33.688 16.416-51.103 23.87-4.615 3.804-9.227 7.611-13.841 11.416-1.246 3.109-.181 5.185 3.194 6.227-3.75 1.687-7.299 3.763-10.646 6.226-5.515.868-10.483 2.944-14.906 6.227-1.292-.257-2.001-.948-2.129-2.075 8.438-9.266 17.311-18.262 26.616-26.983 11.747-18.755 18.1-27.779 18.1-39.437 19.46-5.004 39.332-7.08 59.621-6.227Z"
			clip-rule="evenodd" />
		<path fill="#9186C9" fill-rule="evenodd"
			d="M170.416 192.838c11.171 6.042 21.108 13.653 29.811 22.832-.456 3.412.255 6.525 2.129 9.34-7.514 1.291-14.967.944-22.358-1.038-5.144 4.664-10.468 5.008-15.97 1.038 8.616-.66 11.456-4.465 8.518-11.416-.709-1.385-1.421-2.767-2.13-4.151-2.698-5.754-2.698-11.289 0-16.605Z"
			clip-rule="evenodd" />
		<path fill="#261E2C" fill-rule="evenodd"
			d="M204.484 172.082c2.723-2.522 4.853-1.831 6.388 2.075 4.29 6.993 8.549 13.911 12.776 20.756 4.258 8.994 8.517 17.989 12.776 26.983-.503 3.742-2.658 4.375-6.388 2.076 3.004 12.765 1.584 13.456-4.259 2.075-.877-19.799-7.974-37.786-21.293-53.965Z"
			clip-rule="evenodd" />
		<path fill="#7E6CA4" fill-rule="evenodd"
			d="M306.694 209.442c-1.514 3.531-4.354 5.606-8.517 6.227-3.824 2.684-7.374 5.797-10.646 9.34-2.66 1.536-4.789 1.19-6.388-1.038 6.558-13.479 13.655-26.625 21.293-39.436 4.731.668 8.636-.716 11.711-4.151-.892 4.157-2.668 8.308-5.323 12.453 2.583 4.88 1.164 8.685-4.259 11.416 1.601 1.393 2.313 3.122 2.129 5.189Z"
			clip-rule="evenodd" />
		<path fill="#A49AD4" fill-rule="evenodd"
			d="M393.996 199.064c5.212 2.02 10.891 2.711 17.034 2.076v6.227c5.479 2.061 11.158 3.79 17.035 5.189-5.338.193-9.953 1.922-13.841 5.189-.709-.691-1.42-1.385-2.129-2.076-2.913 3.099-3.269 6.213-1.065 9.34-4.857 3.077-4.857 6.537 0 10.378-2.917 2.991-5.046 6.451-6.388 10.379 1.421.691 2.839 1.384 4.259 2.075-3.288.602-6.126 1.984-8.517 4.151 2.429 1.538 2.429 3.269 0 5.189.379 6.858 3.926 10.318 10.646 10.378v4.152c-22.456-12.369-46.589-19.289-72.397-20.756-8.76.5-17.277 1.884-25.551 4.151-2.637-.644-2.637-1.682 0-3.114 2.983-.851 5.821-1.888 8.517-3.113 12.373-2.977 23.02-8.857 31.94-17.643-.709-.346-1.421-.691-2.13-1.038-5.474 5.09-11.862 8.55-19.164 10.378-3.375-1.041-4.439-3.117-3.194-6.226 4.615-3.805 9.227-7.612 13.841-11.416 17.416-7.454 34.45-15.409 51.104-23.87Z"
			clip-rule="evenodd" />
		<path fill="#474964" fill-rule="evenodd"
			d="M259.849 180.384c-.353 8.331.003 16.634 1.065 24.907 3.643 2.244 6.837 1.553 9.582-2.076-.794 10.077-5.053 12.153-12.776 6.227-2.522-10.095-1.299-19.782 2.129-29.058Z"
			clip-rule="evenodd" />
		<path fill="#B0A9DA" fill-rule="evenodd"
			d="M411.029 201.14c17.851-.1 34.885 3.358 51.104 10.378h2.129c.729 1.739 2.147 2.432 4.259 2.075.362 2.744-.347 5.167-2.129 7.265 3.396-1.281 6.234-.589 8.517 2.076-3.062.454-5.9 1.492-8.517 3.113.445 1.216 1.156 2.254 2.129 3.113-2.557 1.875-4.333 4.295-5.323 7.265l-2.13-2.076c-4.957 2.047-9.215 6.198-12.775 12.454-.71-.691-1.421-1.384-2.13-2.076-.515 3.4-2.289 6.514-5.323 9.341-9.499 5.504-19.437 10-29.811 13.491-6.72-.06-10.267-3.52-10.646-10.378 2.429-1.92 2.429-3.651 0-5.189 2.391-2.167 5.229-3.549 8.517-4.151-1.42-.691-2.838-1.385-4.259-2.076.565-4.168 2.625-7.622 6.388-10.378-4.857-3.842-4.857-7.302 0-10.378-2.203-3.128-1.848-6.241 1.065-9.34.709.691 1.42 1.384 2.129 2.076 3.889-3.267 8.503-4.996 13.841-5.189-5.877-1.399-11.556-3.128-17.035-5.189v-6.227Z"
			clip-rule="evenodd" />
		<path fill="#BAB3DB" fill-rule="evenodd"
			d="M12.8476 199.064c-1.8929 4.642-4.7313 8.793-8.5172 12.454 1.4202.691 2.8384 1.384 4.2586 2.076 3.0982-1.848 5.9387-1.848 8.5173 0 2.0825-.99 3.8562-2.373 5.3233-4.152 17.6627 4.88 35.7619 7.647 54.2976 8.303-.3896 5.056 1.0306 9.554 4.2587 13.491l-3.194 3.114c-.4259 8.827-1.4905 17.476-3.194 25.945 2.9172 5.88 2.206 11.416-2.1293 16.605 2.6744.865 4.0947 2.594 4.2586 5.189-22.7113-9.86-44.3579-21.622-64.9442-35.286-4.8783-6.814-8.7813-14.079-11.7113-21.794-.6877-11.276 3.5709-19.925 12.7759-25.945Z"
			clip-rule="evenodd" />
		<path fill="#12191B" fill-rule="evenodd"
			d="M170.416 209.442c.71 1.385 1.421 2.767 2.13 4.152v6.226c-6.022 2.07-11.701 2.07-17.035 0 1.257-7.92 6.224-11.38 14.905-10.378Z"
			clip-rule="evenodd" />
		<path fill="#25272D" fill-rule="evenodd"
			d="M242.813 143.023c7.51-4.199 4.103 3.676 2.129 10.378 3.182 1.528 6.716 2.279 10.647 2.076-.462 31.368-3.303 62.502-8.518 93.402-7.469-3.975-10.308-10.202-8.517-18.681 2.768-3.576 4.189-8.074 4.259-13.491-.332-6.642-1.041-13.216-2.129-19.718.304-3.658-.407-7.118-2.13-10.378 1.561-1.219 3.69-1.219 6.388 0v2.075a461.3712 461.3712 0 0 0 5.323 24.907c1.061-6.884 1.416-13.802 1.065-20.756v-35.285h-8.517c-1.953-5.199-1.953-10.042 0-14.529Z"
			clip-rule="evenodd" />
		<path fill="#7E7DB2" fill-rule="evenodd"
			d="M172.547 213.593c2.938 6.951.098 10.756-8.517 11.416 5.502 3.971 10.825 3.626 15.97-1.038 7.39 1.982 14.843 2.329 22.357 1.038-1.873-2.814-2.585-5.928-2.129-9.34 5.79 3.568 10.048 8.412 12.776 14.529-9.88-1.862-19.815-2.208-29.811-1.038 5.822 1.491 7.24 4.604 4.259 9.34-3.067.344-6.675-.742-10.646-2.075-8.218-.718-14.605-4.525-19.164-11.416-4.202-1.027-8.46-1.374-12.776-1.038 3.253-1.679 6.801-3.063 10.646-4.151 5.334 2.069 11.013 2.069 17.035 0v-6.227Z"
			clip-rule="evenodd" />
		<path fill="#BBB3E1" fill-rule="evenodd"
			d="M468.52 213.593c17.39 8.641 29.457 21.788 36.198 39.437-.408 4.311-1.473 8.462-3.194 12.453-23.605.395-47.383.741-71.332 1.038-4.925 1.374-9.893 2.412-14.905 3.114v6.226c-2.129-.691-3.55-2.075-4.259-4.151v-4.151c10.374-3.491 20.312-7.987 29.811-13.491 3.034-2.827 4.808-5.941 5.323-9.341.709.691 1.42 1.385 2.129 2.076 3.561-6.256 7.819-10.407 12.776-12.454l2.13 2.076c.99-2.97 2.766-5.39 5.323-7.265-.973-.859-1.684-1.897-2.129-3.113 2.617-1.621 5.455-2.659 8.517-3.114-2.283-2.665-5.121-3.356-8.517-2.075 1.782-2.099 2.491-4.521 2.129-7.265Z"
			clip-rule="evenodd" />
		<path fill="#2E2E36" fill-rule="evenodd"
			d="M279.012 167.931h6.388a507.1784 507.1784 0 0 1-8.517 31.134c.355 1.384.709 2.766 1.064 4.151 1.429-1.561 3.203-2.254 5.324-2.076-1.394 7.197-4.727 13.196-10.647 17.643-3.275 7.729-4.34 15.685-3.194 23.869 2.889-7.053 6.793-13.279 11.711-18.68 1.599 2.227 3.729 2.574 6.388 1.038 3.273-3.543 6.823-6.657 10.647-9.34v4.151c-3.303 4.732-6.143 9.921-8.517 15.567 1.746 1.202 3.17 2.264 4.258 3.113-2.753 3.728-5.947 7.188-9.582 10.378.709-5.535 1.42-11.069 2.13-16.605-2.272 1.435-4.757 2.472-7.453 3.114-3.55 4.842-7.097 9.687-10.647 14.529-2.018 1.002-4.148 1.347-6.388 1.038-4.77-13.451-6.551-27.246-4.258-41.512 7.723 5.926 11.981 3.85 12.776-6.227 3.832-11.486 6.671-23.249 8.517-35.285Z"
			clip-rule="evenodd" />
		<path fill="#64668F" fill-rule="evenodd"
			d="M213.002 230.198c3.338.913 4.928 2.954 4.258 6.227h-8.517c.73 4.116-.69 6.885-4.259 8.303-9.933-1.156-19.159-3.923-27.681-8.303 3.752-.297 7.302.397 10.647 2.076 2.981-4.737 1.563-7.85-4.259-9.34 9.797-1.87 19.885-1.55 29.811 1.037Z"
			clip-rule="evenodd" />
		<path fill="#24235B" fill-rule="evenodd"
			d="M321.6 248.879v-2.076c3.347-2.464 6.896-4.539 10.646-6.227 7.302-1.828 13.69-5.288 19.164-10.378.709.347 1.42.691 2.129 1.038-8.919 8.786-19.566 14.666-31.939 17.643Z"
			clip-rule="evenodd" />
		<path fill="#47486E" fill-rule="evenodd"
			d="M217.26 236.425c6.063 6.636 12.383 13.272 19.164 19.719-5.462 1.264-10.432.226-14.906-3.114-5.864-2.368-11.543-5.137-17.034-8.302 3.569-1.418 4.989-4.187 4.259-8.303h8.517Z"
			clip-rule="evenodd" />
		<path fill="#0D0E0F" fill-rule="evenodd"
			d="M264.109 140.948c2.047 5.303 4.885 10.145 8.518 14.529v12.454c-3.55 4.842-7.809 8.993-12.776 12.453-2.1 9.278-2.809 18.965-2.13 29.059 3.295 13.603 4.713 27.441 4.259 41.512 2.24.309 4.369-.036 6.388-1.038 3.55-4.843 7.097-9.687 10.647-14.529 2.695-.642 5.18-1.68 7.452-3.114-.709 5.536-1.42 11.069-2.129 16.605 3.635-3.19 6.829-6.65 9.582-10.378 4.259-4.842 8.517-9.687 12.776-14.529 6.388-4.843 12.067-10.378 17.034-16.605 7.896-7.7 16.413-14.618 25.552-20.756 2.123-.062 3.543.976 4.259 3.113-1.065 3.114-2.129 6.227-3.194 9.341-7.208 7.715-13.596 16.017-19.164 24.907-9.305 8.721-18.178 17.717-26.617 26.983-3.136 1.187.34 1.034-2.2 3.307 5.11.386 4.757 1.423 9.582 3.113-1.757 1.839-.692 7.719-3.194 7.265 0 2.075-4.188.844-4.188 2.919-5.982 1.149-11.797 2.007-17.034 4.152-7.225-.075-10.065 2.692-8.517 8.302v16.605c-6.627-1.2-13.015-1.2-19.164 0-1.785-.71-2.496-2.092-2.13-4.151 3.211-12.888 1.082-13.579-6.388-2.076-3.649-6.366-7.908-12.593-12.775-18.68-3.028-.519-5.158-2.248-6.388-5.189-3.48-1.026-7.029-1.37-10.647-1.038-4.371.203-7.921-1.181-10.647-4.151-2.749-2.02-2.749-4.096 0-6.227 3.29-1.976 6.84-2.667 10.647-2.076 4.474 3.34 9.444 4.378 14.905 3.114-6.882-6.356-13.27-12.929-19.164-19.719.156-3.169-1.264-5.245-4.258-6.226-2.728-6.117-6.987-10.962-12.776-14.53-8.703-9.178-18.64-16.789-29.811-22.831-3.077-3.244-6.624-6.011-10.646-8.303-.064-2.069 1.001-3.453 3.194-4.151 10.623 2.991 20.914 6.796 30.875 11.416 11.935 10.579 22.581 21.995 31.94 34.247 5.843 11.381 7.263 10.69 4.258-2.075.801-4.78 2.93-5.474 6.388-2.076.709 2.767 1.421 5.536 2.13 8.303-1.791 8.478 1.047 14.705 8.517 18.68 5.234-30.476 8.077-61.719 8.517-93.402-4.078.589-7.625-.102-10.646-2.076-6.39-14.017 7.096-22.535 19.163-12.453Z"
			clip-rule="evenodd" />
		<path fill="#525583" fill-rule="evenodd"
			d="M298.176 219.82c1.455 3.479 4.295 4.863 8.518 4.152-4.259 4.842-8.518 9.686-12.776 14.529-2.123.062-3.543-.976-4.259-3.114 2.374-5.645 5.215-10.834 8.517-15.567Z"
			clip-rule="evenodd" />
		<path fill="#796BB5" fill-rule="evenodd"
			d="M323.729 207.367c-4.968 6.227-10.647 11.762-17.035 16.605-4.222.711-7.063-.673-8.517-4.152v-4.151c4.163-.62 7.003-2.696 8.517-6.227 4.904-5.12 10.227-9.963 15.97-14.529 1.054 4.095 1.41 8.246 1.065 12.454Z"
			clip-rule="evenodd" />
		<path fill="#6B639B" fill-rule="evenodd"
			d="M223.649 194.913c6.06.641 9.254 4.099 9.582 10.378 2.31-2.565 4.084-5.332 5.323-8.302h2.129c1.089 6.503 1.798 13.076 2.13 19.718-.07 5.417-1.491 9.915-4.259 13.491-.709-2.766-1.42-5.535-2.129-8.302-4.259-8.994-8.517-17.989-12.776-26.983Z"
			clip-rule="evenodd" />
		<path fill="#514D57" fill-rule="evenodd"
			d="M244.942 188.686c1.636 1.584 2.7 3.659 3.194 6.227.816-1.154 1.881-1.845 3.194-2.076.352 6.954-.004 13.871-1.064 20.756a460.4214 460.4214 0 0 1-5.324-24.907Z"
			clip-rule="evenodd" />
		<path fill="#15181F" fill-rule="evenodd"
			d="M144.865 223.971c4.316-.336 8.574.011 12.775 1.038 4.559 6.891 10.947 10.698 19.164 11.416 8.522 4.38 17.748 7.146 27.682 8.302 5.491 3.166 11.17 5.935 17.034 8.303-3.807-.592-7.357.099-10.647 2.075-2.748 2.132-2.748 4.208 0 6.227-11.355-4.151-22.713-8.302-34.069-12.453-7.284-10.142-17.222-16.715-29.81-19.719-1.601-1.392-2.313-3.121-2.129-5.189Z"
			clip-rule="evenodd" />
		<path fill="#877DBB" fill-rule="evenodd"
			d="M411.03 271.71c.71 2.076 2.13 3.46 4.259 4.151 2.129.692 3.55 2.076 4.259 4.152-7.746 14.077-36.887 29.051-42.587 31.134-13.101-8.072-27.298-13.955-42.586-17.643-14.281-2.356-28.122-6.16-41.522-11.416-1.629.145-2.693.837-3.194 2.076-2.811-2.993-6.358-4.376-10.646-4.151-1.548-5.611 1.292-8.378 8.517-8.303 16.638-.124 32.962 1.951 48.974 6.227.273-4.473-.792-8.624-3.194-12.454-6.19-4.915-12.933-8.375-20.228-10.378 8.274-2.266 16.792-3.651 25.552-4.151 25.807 1.468 49.941 8.388 72.396 20.756Z"
			clip-rule="evenodd" />
		<path fill="#716C9F" fill-rule="evenodd"
			d="M176.804 248.879c11.356 4.151 22.714 8.302 34.069 12.454 2.726 2.97 6.275 4.354 10.647 4.151v2.075c-16.662 2.007-32.276-1.797-46.845-11.415-4.364 1.19-8.597.496-12.776-1.038 4.278-3.249 9.248-5.324 14.905-6.227Z"
			clip-rule="evenodd" />
		<path fill="#15151C" fill-rule="evenodd"
			d="M321.599 246.803v2.076c-2.696 1.224-5.534 2.262-8.517 3.113-2.636 1.432-2.636 2.47 0 3.114 7.295 2.003 14.038 5.463 20.228 10.378 2.402 3.829 3.467 7.98 3.194 12.453-16.012-4.275-32.336-6.351-48.974-6.227 4.978-3.196 10.657-4.578 17.034-4.151v-6.227c2.502.455 4.632-.236 6.388-2.075-4.825-1.69-9.795-2.728-14.905-3.114 2.54-2.272 5.381-4.001 8.517-5.189.128 1.127.837 1.819 2.13 2.076 4.422-3.284 9.39-5.359 14.905-6.227Z"
			clip-rule="evenodd" />
		<path fill="#948CC7" fill-rule="evenodd"
			d="M161.9 255.106c4.316-.337 8.575.01 12.776 1.037 14.569 9.619 30.183 13.423 46.845 11.416 2.24-.309 4.37.036 6.388 1.038-14.579 6.258-25.226 16.289-31.94 30.096h-2.129c-1.903-.032-2.714-1.353-2.129-4.151-2.389 2.346-5.23 3.73-8.518 4.151-22.937.098-25.066-6.474-6.388-19.718-3.717-4.689-8.687-7.455-14.905-8.302 5.311-4.967 3.891-7.389-4.258-7.265-.731-4.116.69-6.885 4.258-8.302Z"
			clip-rule="evenodd" />
		<path fill="#1A1826" fill-rule="evenodd"
			d="M221.522 267.559v-2.075c3.617-.333 7.167.012 10.646 1.037 1.231 2.941 3.36 4.67 6.388 5.189-14.185 8.979-28.379 17.973-42.586 26.983 6.713-13.807 17.36-23.838 31.94-30.096-2.019-1.003-4.148-1.347-6.388-1.038Z"
			clip-rule="evenodd" />
		<path fill="#9890C8" fill-rule="evenodd"
			d="M419.477 280.206c5.43 3.274 9.688 7.425 12.776 12.454 3.142 3.774 4.154 7.384 1.065 10.378-3.893-4.188-2.13 6.227-39.393 15.567-6.311-.645-11.99-3.068-17.034-7.265 1.771-1.72 1.062-3.449-2.13-5.189 5.26-5.88 11.292-11.069 18.099-15.567 2.164 2.354 3.584 1.663 4.259-2.075 3.169 1.444 6.363.751 9.582-2.076-3.809-2.331-4.518-5.097-2.129-8.302 1.969 2.368 3.745 2.368 5.323 0 2.7 6.806 5.894 7.497 9.582 2.075Z"
			clip-rule="evenodd" />
		<path fill="#7068A3" fill-rule="evenodd"
			d="M238.556 271.71c4.867 6.088 9.126 12.315 12.776 18.681-3.488 4.973-5.971 10.507-7.453 16.605-.873-2.908-1.938-5.675-3.194-8.303.317-2.183-.036-4.259-1.065-6.227-5.297 2.381-9.556 5.841-12.776 10.378l-2.129-2.075c-1.42 2.767-2.838 5.536-4.258 8.302-1.908-.743-3.143-2.003-3.194-4.151-5.831 4.402-11.865 8.554-18.1 12.454-4.454-4.996-8.713-4.996-12.776 0-.355-1.038-.709-2.076-1.064-3.114 4.212-4.456 7.05-9.645 8.517-15.567h2.129c14.207-9.01 28.401-18.003 42.587-26.983Z"
			clip-rule="evenodd" />
		<path fill="#181B3A" fill-rule="evenodd"
			d="M257.719 292.466c-.366 2.059.345 3.442 2.129 4.152a145 145 0 0 1-6.387 18.68c-5.477 13.96-7.253 13.267-5.324-2.076 3.897-6.88 7.091-13.8 9.582-20.756Z"
			clip-rule="evenodd" />
		<path fill="#796FB1" fill-rule="evenodd"
			d="M240.684 298.693c-22.429 18.635-43.013 39.391-61.751 62.268-2.353 2.283-5.191 3.668-8.517 4.151-.49-14.643.575-29.172 3.194-43.587 1.367-8.531 4.561-16.142 9.582-22.832 3.288-.421 6.128-1.806 8.517-4.151 1.699.948 2.408 2.333 2.13 4.151-1.468 5.922-4.306 11.111-8.518 15.567.356 1.038.709 2.076 1.065 3.114 4.063-4.996 8.321-4.996 12.776 0 6.234-3.901 12.269-8.052 18.099-12.454 1.474 1.09 2.538 2.474 3.194 4.151 1.42-2.767 2.838-5.536 4.259-8.302l2.129 2.075c3.22-4.537 7.478-7.997 12.776-10.378 1.028 1.968 1.382 4.044 1.065 6.227Z"
			clip-rule="evenodd" />
		<path fill="#B3ABDC" fill-rule="evenodd"
			d="M132.088 311.147c-.019 3.753 1.045 7.213 3.194 10.378 3.166-1.563 3.522-3.292 1.064-5.189 9.11-4.743 10.53-3.012 4.259 5.189 3.209 2.572 5.694 1.878 7.453-2.076 1.578 2.369 3.353 2.369 5.323 0 2.832 3.834 2.123 6.947-2.129 9.341 2.753 1.017 5.593 1.363 8.517 1.037.72-5.211.72-10.056 0-14.529 1.842-2.248 3.971-2.592 6.388-1.038.577 16.753-.134 33.704-2.129 50.853 1.075 2.945 3.204 4.327 6.388 4.151 1.298 1.849 2.008 3.925 2.129 6.227-4.512-2.57-8.771-5.683-12.776-9.341-5.091-.595-10.059-1.633-14.905-3.113-4.468 2.042-8.726 1.351-12.776-2.076 2.429-1.92 2.429-3.651 0-5.189-4.259-.691-8.517-1.384-12.776-2.075 2.487-2.918 1.778-5.339-2.129-7.265 3.809-2.331 4.518-5.097 2.129-8.302-1.248.434-2.313 1.127-3.194 2.075-.818-3.522-.464-6.98 1.065-10.378 2.542-8.018 7.51-14.244 14.905-18.68Z"
			clip-rule="evenodd" />
		<path fill="#9085C5" fill-rule="evenodd"
			d="M257.718 292.467c-2.491 6.955-5.685 13.875-9.582 20.756-1.929 15.342-.153 16.036 5.323 2.075 2.121.179 3.895-.515 5.324-2.075 12.782 10.039 24.493 21.108 35.133 33.209-1.782.231-3.911.922-6.388 2.076-4.659-4.919-9.982-6.304-15.969-4.151-2.839-1.385-4.968-3.46-6.388-6.227-.26 5.426-4.259 9.254-10.647 12.453-.709-3.46-1.42-6.918-2.129-10.378-3.986 6.399-6.825 13.317-8.518 20.756.235-15.21.235-30.432 0-45.663-3.879 4.99-6.72 10.523-8.517 16.605-1.597 1.299-3.373 2.337-5.323 3.113.709.692 1.42 1.385 2.129 2.076-3.914-1.314-7.817-.967-11.711 1.038-12.451 11.627-26.508 18.364-41.522 22.831 18.738-22.877 39.322-43.633 61.75-62.268 1.257 2.628 2.321 5.395 3.194 8.303 1.482-6.098 3.965-11.632 7.453-16.605 7.47-11.503 9.599-10.812 6.388 2.076Z"
			clip-rule="evenodd" />
		<path fill="#7B72AD" fill-rule="evenodd"
			d="M279.014 280.013c4.288-.224 7.836 1.158 10.646 4.151 2.839 2.076 5.679 4.152 8.518 6.227 16.813 20.808 23.201 44.331 19.164 70.571-7.508-5.384-15.315-10.227-23.423-14.53-10.64-12.1-22.351-23.169-35.134-33.209-1.148 1.934-2.942 2.648-5.323 2.075 2.551-6.073 4.68-12.3 6.388-18.68 6.149-1.2 12.537-1.2 19.164 0v-16.605Z"
			clip-rule="evenodd" />
		<path fill="#BAB4DE" fill-rule="evenodd"
			d="M117.185 329.827c-1.529 3.398-1.882 6.856-1.064 10.378.881-.948 1.946-1.642 3.193-2.075 2.39 3.204 1.681 5.971-2.129 8.302 3.907 1.926 4.617 4.346 2.129 7.265 4.259.691 8.518 1.384 12.776 2.075 2.43 1.538 2.43 3.269 0 5.189 4.05 3.427 8.309 4.118 12.776 2.076 4.847 1.48 9.814 2.517 14.906 3.113 4.005 3.657 8.263 6.771 12.775 9.34v10.378c-16.385 7.757-33.773 12.599-52.168 14.53-9.663-.044-13.568-4.886-11.711-14.53-6.277.575-12.3097-.116-18.0993-2.075-1.2457-7.933-.181-15.544 3.1939-22.832 7.2864-10.747 15.0944-21.125 23.4224-31.134Z"
			clip-rule="evenodd" />
		<path fill="#ABA3D9" fill-rule="evenodd"
			d="M289.659 284.164c.501-1.239 1.565-1.93 3.194-2.076 13.4 5.256 27.241 9.06 41.522 11.416 15.288 3.689 29.485 9.571 42.586 17.643 5.045 4.197 10.724 6.619 17.035 7.264-5.679-2.075-5.679-4.151 0-6.226 8.724-3.599 17.952-5.675 27.681-6.227 3.356-.913 6.196-2.642 8.517-5.189 1.248.434 2.313 1.127 3.194 2.075.818-3.522.394-6.786-1.135-10.184 11.328 10.351 19.207 22.611 23.493 37.167 13.966 49.733-96.153 46.759-123.5 39.437-5.021.512-9.28-.87-12.776-4.152.183-32.39 39.927-64.99-21.294-74.721-2.838-2.076-5.678-4.151-8.517-6.227Z"
			clip-rule="evenodd" />
		<path fill="#B8B0E0" fill-rule="evenodd"
			d="M455.745 329.827c1.635 1.584 2.7 3.659 3.194 6.227 1.42 10.378 1.42 20.756 0 31.134-1.88 5.401-5.074 9.899-9.582 13.491-32.781 1.931-65.43.893-97.949-3.113a212.2737 212.2737 0 0 0-19.164-8.302c5.658.685 11.337 1.376 17.035 2.075 9.088.417 15.476-3.387 19.164-11.416-1.421-.691-2.839-1.384-4.259-2.075 4.129-1.885 6.258-4.998 6.388-9.34 4.316.336 8.575-.011 12.776-1.038-.709-.691-1.42-1.385-2.129-2.076 8.561-2.2 17.079-4.622 25.551-7.264 3.803 3.157 7.706 3.848 11.712 2.075 6.477 3.877 13.218 7.337 20.228 10.378 1.887-1.712 2.596-3.788 2.129-6.227 2.815-.352 5.3.339 7.453 2.076 1.065-1.038 2.129-2.076 3.194-3.113-2.204-3.128-1.848-6.242 1.065-9.341.709.692 1.42 1.385 2.129 2.076 1.029-1.968 1.382-4.043 1.065-6.227Z"
			clip-rule="evenodd" />
		<path fill="#9D93CF" fill-rule="evenodd"
			d="M298.175 290.391c22.496 2.019 43.79 7.901 63.88 17.642-3.288.602-6.126 1.985-8.517 4.151 2.457 1.898 2.101 3.627-1.065 5.189-2.129-.691-4.259-1.384-6.388-2.075-4.076 2.441-3.722 4.516 1.065 6.227-11.771 12.885-20.998 27.414-27.682 43.587-1.988 2.217-2.7 4.984-2.129 8.303-32.368-3.404-111.675 32.579-146.923-4.151v-4.152c3.326-.483 6.164-1.868 8.517-4.151 14.573-6.241 28.414-13.85 41.522-22.832 3.895-2.005 7.798-2.351 11.711-1.037-.709-.692-1.42-1.385-2.129-2.076 1.95-.776 3.726-1.814 5.323-3.113 1.797-6.082 4.638-11.615 8.518-16.605.234 15.231.234 30.453 0 45.663 1.692-7.439 4.531-14.357 8.517-20.756.709 3.46 1.42 6.918 2.129 10.378 4.763-4.338 8.313-8.489 10.647-12.454 1.42 2.767 3.549 4.843 6.388 6.227 5.987-2.152 11.311-.768 15.97 4.151 2.476-1.154 4.605-1.845 6.388-2.075 8.108 4.303 15.914 9.145 23.422 14.529 4.037-26.24-2.351-49.762-19.164-70.57Z"
			clip-rule="evenodd" />
		<path fill="#A59ED4" fill-rule="evenodd"
			d="M317.339 373.415c-1.563 2.507-2.272 5.274-2.129 8.303-37.482 46.537-116.575 62.546-138.406 10.378-.92-2.512-2.34-4.588-4.259-6.227v-10.378c-.121-2.302-.83-4.378-2.129-6.227 5.515-.216 10.483 1.168 14.905 4.151 16.011-1.976 30.916-5.434 44.716-10.378 2.566 3.4 5.404 4.091 8.517 2.076 1.699 3.275 2.764 6.733 3.194 10.378 3.55-3.46 7.097-6.918 10.647-10.378.709 1.384 1.42 2.766 2.129 4.151 3.039-4.747 6.944-5.438 11.711-2.076 8.941-5.517 17.459-5.17 25.552 1.038-2.457 1.897-2.101 3.626 1.065 5.189 2.37-2.513 4.855-2.513 7.453 0 2.237-2.875 5.076-4.95 8.517-6.227 2.432 2.753 5.272 4.828 8.517 6.227Z"
			clip-rule="evenodd" />
		<path fill="#B1AADA" fill-rule="evenodd"
			d="M315.209 381.717c-3.181 9.326-6.729 18.322-10.647 26.983-5.561 1.613-9.464 5.073-11.711 10.378-2.994-2.424-5.476-1.733-7.452 2.076-6.38-2.767-9.929-.691-10.647 6.227h-8.517v-8.303c-8.07-1.021-9.489.708-4.259 5.189-8 4.133-15.452 3.786-22.358-1.038-1.774 4.395-4.905 6.923-9.582 7.265-7.28-.783-14.379.946-21.293 5.189-1.97-2.368-3.745-2.368-5.323 0-3.741-5.39-8.356-9.542-13.841-12.454-4.258-10.378-8.517-20.756-12.776-31.134 2.121-.178 3.895.515 5.324 2.076.709 3.46 1.42 6.918 2.129 10.378 1.816-3.373 3.945-4.064 6.388-2.076 4.405-1.585 9.02-2.623 13.84-3.113-.709-.691-1.42-1.385-2.129-2.076 6.073-.558 11.75-2.289 17.035-5.189 3.113 2.016 5.951 1.325 8.517-2.075 1.97 2.368 3.745 2.368 5.323 0 2.13 2.075 4.259 4.151 6.388 6.227 2.645-4.237 6.548-6.657 11.711-7.265 20.261-3.676 41.554-6.098 63.88-7.265Z"
			clip-rule="evenodd" />
		<path fill="#B9B3DD" fill-rule="evenodd"
			d="M304.564 408.7v4.151c-9.922 16.277-21.989 31.153-36.198 44.626-26.693 18.52-49.051 14.716-67.074-11.416-4.005-7.808-7.908-15.42-11.711-22.832 5.485 2.912 10.099 7.064 13.841 12.454 1.577-2.368 3.353-2.368 5.323 0 6.914-4.243 14.013-5.971 21.293-5.189 3.795-1.69 6.989-4.112 9.582-7.265 6.905 4.824 14.358 5.171 22.358 1.038-5.23-4.481-3.812-6.21 4.259-5.189v8.303h8.517c.717-6.918 4.267-8.994 10.646-6.227 1.976-3.809 4.459-4.5 7.453-2.076 2.247-5.305 6.15-8.765 11.711-10.378Z"
			clip-rule="evenodd" />
		<path fill="#fff"
			d="M576 317c-1.6 0-3.1-.6-4.5-1.8-1.2-1.4-1.8-2.9-1.8-4.5 0-1 .1-1.9.3-2.7l70.5-192.6c.6-2.2 1.8-4.1 3.6-5.7 2-1.8 4.7-2.7 8.1-2.7h44.4c3.4 0 6 .9 7.8 2.7 2 1.6 3.3 3.5 3.9 5.7L778.5 308c.4.8.6 1.7.6 2.7 0 1.6-.7 3.1-2.1 4.5-1.2 1.2-2.7 1.8-4.5 1.8h-36.9c-3 0-5.3-.7-6.9-2.1-1.4-1.6-2.3-3-2.7-4.2l-11.7-30.6h-80.1l-11.4 30.6c-.4 1.2-1.3 2.6-2.7 4.2-1.4 1.4-3.8 2.1-7.2 2.1H576Zm70.5-80.1h55.8l-28.2-79.2-27.6 79.2ZM855.888 320c-9.6 0-18.3-1.5-26.1-4.5-7.6-3.2-14.2-7.8-19.8-13.8-5.4-6.2-9.6-13.6-12.6-22.2-3-8.8-4.7-18.8-5.1-30-.2-4-.3-7.5-.3-10.5 0-3.2.1-6.7.3-10.5.4-10.8 2.1-20.5 5.1-29.1 3-8.6 7.2-16 12.6-22.2 5.4-6.2 12-10.9 19.8-14.1 7.8-3.4 16.5-5.1 26.1-5.1 10 0 18.6 1.7 25.8 5.1 7.2 3.2 13.3 7.4 18.3 12.6v-64.2c0-2.2.7-4 2.1-5.4 1.4-1.4 3.2-2.1 5.4-2.1h36.6c2 0 3.7.7 5.1 2.1 1.6 1.4 2.4 3.2 2.4 5.4v198c0 2.2-.8 4-2.4 5.4-1.4 1.4-3.1 2.1-5.1 2.1h-33.9c-2.2 0-4-.7-5.4-2.1-1.4-1.4-2.1-3.2-2.1-5.4v-9.6c-4.8 5.8-11 10.6-18.6 14.4-7.6 3.8-17 5.7-28.2 5.7Zm16.2-40.2c6.8 0 12.1-1.4 15.9-4.2 4-3 6.9-6.8 8.7-11.4 2-4.6 3.1-9.6 3.3-15 .2-4 .3-7.8.3-11.4 0-3.6-.1-7.3-.3-11.1-.2-5-1.3-9.6-3.3-13.8-2-4.4-5-7.9-9-10.5-4-2.8-9.2-4.2-15.6-4.2-6.6 0-11.9 1.4-15.9 4.2-3.8 2.8-6.5 6.6-8.1 11.4-1.6 4.8-2.6 10.1-3 15.9-.6 6.2-.6 12.4 0 18.6.4 5.8 1.4 11.1 3 15.9 1.6 4.8 4.3 8.6 8.1 11.4 4 2.8 9.3 4.2 15.9 4.2ZM994.446 317c-2.2 0-4-.7-5.4-2.1-1.4-1.4-2.1-3.2-2.1-5.4v-198c0-2.2.7-4 2.1-5.4 1.4-1.4 3.2-2.1 5.4-2.1h35.404c2.2 0 4 .7 5.4 2.1 1.4 1.4 2.1 3.2 2.1 5.4v198c0 2.2-.7 4-2.1 5.4-1.4 1.4-3.2 2.1-5.4 2.1h-35.404Zm96.094 0c-2.2 0-4-.7-5.4-2.1-1.4-1.4-2.1-3.2-2.1-5.4v-141c0-2.2.7-4 2.1-5.4 1.4-1.4 3.2-2.1 5.4-2.1h35.4c2 0 3.7.7 5.1 2.1 1.6 1.4 2.4 3.2 2.4 5.4v141c0 2.2-.8 4-2.4 5.4-1.4 1.4-3.1 2.1-5.1 2.1h-35.4Zm-.3-178.5c-2.2 0-4-.7-5.4-2.1-1.4-1.4-2.1-3.2-2.1-5.4v-26.7c0-2.2.7-4 2.1-5.4 1.4-1.6 3.2-2.4 5.4-2.4h35.7c2.2 0 4 .8 5.4 2.4 1.6 1.4 2.4 3.2 2.4 5.4V131c0 2.2-.8 4-2.4 5.4-1.4 1.4-3.2 2.1-5.4 2.1h-35.7Zm85.85 178.5c-2.2 0-4-.7-5.4-2.1-1.4-1.4-2.1-3.2-2.1-5.4v-198c0-2.2.7-4 2.1-5.4 1.4-1.4 3.2-2.1 5.4-2.1h35.4c2.2 0 4 .7 5.4 2.1 1.4 1.4 2.1 3.2 2.1 5.4v198c0 2.2-.7 4-2.1 5.4-1.4 1.4-3.2 2.1-5.4 2.1h-35.4Zm107.44 57c-1.8 0-3.3-.6-4.5-1.8-1.2-1.2-1.8-2.7-1.8-4.5v-1.8c.2-.6.5-1.3.9-2.1l23.4-56.4-57.6-136.2c-.6-1.4-.9-2.6-.9-3.6.4-1.8 1.2-3.3 2.4-4.5 1.2-1.4 2.7-2.1 4.5-2.1h34.2c2.6 0 4.5.7 5.7 2.1 1.4 1.2 2.3 2.6 2.7 4.2l34.5 87.3 35.1-87.3c.8-1.6 1.8-3 3-4.2 1.4-1.4 3.4-2.1 6-2.1h33.6c1.8 0 3.3.7 4.5 2.1 1.4 1.2 2.1 2.6 2.1 4.2 0 1-.3 2.3-.9 3.9l-84.9 196.5c-.6 1.6-1.6 3-3 4.2-1.4 1.4-3.4 2.1-6 2.1h-33Z" />
	</g>
	<defs>
		<clipPath id="a">
			<path fill="#fff" d="M0 0h1412v469H0z" />
		</clipPath>
	</defs>
</svg>